<mxfile host="app.diagrams.net" agent="Mozilla/5.0 (Macintosh; Intel Mac OS X 10_15_7) AppleWebKit/537.36 (KHTML, like Gecko) Chrome/138.0.0.0 Safari/537.36" version="28.0.6">
  <diagram name="Page-1" id="AoHrSHvutFHruE96zXki">
    <mxGraphModel dx="1027" dy="609" grid="0" gridSize="10" guides="1" tooltips="1" connect="1" arrows="1" fold="1" page="1" pageScale="1" pageWidth="827" pageHeight="1169" math="0" shadow="0">
      <root>
        <mxCell id="0" />
        <mxCell id="1" parent="0" />
        <mxCell id="wSM_X8T7oFFZtxNjYqWQ-23" value="" style="rounded=0;whiteSpace=wrap;html=1;labelBackgroundColor=none;fillColor=light-dark(#FFFFFF,#000000);strokeColor=none;" vertex="1" parent="1">
          <mxGeometry x="34" y="220" width="759" height="91" as="geometry" />
        </mxCell>
        <mxCell id="wSM_X8T7oFFZtxNjYqWQ-28" value="" style="edgeStyle=orthogonalEdgeStyle;rounded=0;orthogonalLoop=1;jettySize=auto;html=1;labelBackgroundColor=none;fontColor=default;" edge="1" parent="1" source="wSM_X8T7oFFZtxNjYqWQ-25" target="wSM_X8T7oFFZtxNjYqWQ-27">
          <mxGeometry relative="1" as="geometry" />
        </mxCell>
        <mxCell id="wSM_X8T7oFFZtxNjYqWQ-25" value="AWS Services&lt;br&gt;(EC2, Lambda, etc.)" style="rounded=0;whiteSpace=wrap;html=1;labelBackgroundColor=none;" vertex="1" parent="1">
          <mxGeometry x="54" y="235.5" width="120" height="60" as="geometry" />
        </mxCell>
        <mxCell id="wSM_X8T7oFFZtxNjYqWQ-32" value="" style="edgeStyle=orthogonalEdgeStyle;rounded=0;orthogonalLoop=1;jettySize=auto;html=1;" edge="1" parent="1" source="wSM_X8T7oFFZtxNjYqWQ-27" target="wSM_X8T7oFFZtxNjYqWQ-31">
          <mxGeometry relative="1" as="geometry" />
        </mxCell>
        <mxCell id="wSM_X8T7oFFZtxNjYqWQ-27" value="CloudWatch&lt;br&gt;(Logs)" style="rounded=0;whiteSpace=wrap;html=1;labelBackgroundColor=none;" vertex="1" parent="1">
          <mxGeometry x="254" y="235.5" width="120" height="60" as="geometry" />
        </mxCell>
        <mxCell id="wSM_X8T7oFFZtxNjYqWQ-34" value="" style="edgeStyle=orthogonalEdgeStyle;rounded=0;orthogonalLoop=1;jettySize=auto;html=1;" edge="1" parent="1" source="wSM_X8T7oFFZtxNjYqWQ-31" target="wSM_X8T7oFFZtxNjYqWQ-33">
          <mxGeometry relative="1" as="geometry" />
        </mxCell>
        <mxCell id="wSM_X8T7oFFZtxNjYqWQ-31" value="Firehose Stream" style="rounded=0;whiteSpace=wrap;html=1;labelBackgroundColor=none;" vertex="1" parent="1">
          <mxGeometry x="454" y="235.5" width="120" height="60" as="geometry" />
        </mxCell>
        <mxCell id="wSM_X8T7oFFZtxNjYqWQ-33" value="CubeAPM" style="rounded=0;whiteSpace=wrap;html=1;labelBackgroundColor=none;" vertex="1" parent="1">
          <mxGeometry x="654" y="235.5" width="120" height="60" as="geometry" />
        </mxCell>
      </root>
    </mxGraphModel>
  </diagram>
</mxfile>
